<mxfile host="Electron" modified="2023-11-30T14:50:03.158Z" agent="Mozilla/5.0 (Windows NT 10.0; Win64; x64) AppleWebKit/537.36 (KHTML, like Gecko) draw.io/22.1.2 Chrome/114.0.5735.289 Electron/25.9.4 Safari/537.36" etag="J9hOABn4UK3FfuZ2R9B1" version="22.1.2" type="device">
  <diagram name="Sida-1" id="2-tAdc8GTIb_M9oSxk2t">
    <mxGraphModel dx="521" dy="613" grid="1" gridSize="10" guides="1" tooltips="1" connect="1" arrows="1" fold="1" page="1" pageScale="1" pageWidth="827" pageHeight="1169" math="0" shadow="0">
      <root>
        <mxCell id="0" />
        <mxCell id="1" parent="0" />
        <mxCell id="q_8bKuRFClCC4gB8SDrk-32" style="edgeStyle=orthogonalEdgeStyle;rounded=0;orthogonalLoop=1;jettySize=auto;html=1;exitX=0.5;exitY=1;exitDx=0;exitDy=0;entryX=0.5;entryY=0;entryDx=0;entryDy=0;" edge="1" parent="1" source="q_8bKuRFClCC4gB8SDrk-1" target="q_8bKuRFClCC4gB8SDrk-22">
          <mxGeometry relative="1" as="geometry" />
        </mxCell>
        <mxCell id="q_8bKuRFClCC4gB8SDrk-1" value="function&lt;br&gt;Σ &lt;b&gt;3310&lt;/b&gt;" style="rounded=0;whiteSpace=wrap;html=1;fillColor=#d5e8d4;strokeColor=#82b366;gradientColor=#97d077;" vertex="1" parent="1">
          <mxGeometry x="230" y="80" width="70" height="50" as="geometry" />
        </mxCell>
        <mxCell id="q_8bKuRFClCC4gB8SDrk-27" style="rounded=0;orthogonalLoop=1;jettySize=auto;html=1;exitX=0.25;exitY=1;exitDx=0;exitDy=0;entryX=0.5;entryY=0;entryDx=0;entryDy=0;" edge="1" parent="1" source="q_8bKuRFClCC4gB8SDrk-2" target="q_8bKuRFClCC4gB8SDrk-4">
          <mxGeometry relative="1" as="geometry" />
        </mxCell>
        <mxCell id="q_8bKuRFClCC4gB8SDrk-28" style="rounded=0;orthogonalLoop=1;jettySize=auto;html=1;exitX=0;exitY=1;exitDx=0;exitDy=0;" edge="1" parent="1" source="q_8bKuRFClCC4gB8SDrk-2" target="q_8bKuRFClCC4gB8SDrk-3">
          <mxGeometry relative="1" as="geometry" />
        </mxCell>
        <mxCell id="q_8bKuRFClCC4gB8SDrk-29" style="rounded=0;orthogonalLoop=1;jettySize=auto;html=1;exitX=0.75;exitY=1;exitDx=0;exitDy=0;entryX=0.5;entryY=0;entryDx=0;entryDy=0;" edge="1" parent="1" source="q_8bKuRFClCC4gB8SDrk-2" target="q_8bKuRFClCC4gB8SDrk-7">
          <mxGeometry relative="1" as="geometry" />
        </mxCell>
        <mxCell id="q_8bKuRFClCC4gB8SDrk-30" style="rounded=0;orthogonalLoop=1;jettySize=auto;html=1;exitX=1;exitY=1;exitDx=0;exitDy=0;entryX=0.5;entryY=0;entryDx=0;entryDy=0;" edge="1" parent="1" source="q_8bKuRFClCC4gB8SDrk-2" target="q_8bKuRFClCC4gB8SDrk-9">
          <mxGeometry relative="1" as="geometry" />
        </mxCell>
        <mxCell id="q_8bKuRFClCC4gB8SDrk-2" value="while loop: 50&lt;br&gt;Σ &lt;b&gt;66 * 50&lt;/b&gt;" style="rounded=0;whiteSpace=wrap;html=1;fillColor=#d5e8d4;gradientColor=#97d077;strokeColor=#82b366;" vertex="1" parent="1">
          <mxGeometry x="230" y="290" width="70" height="50" as="geometry" />
        </mxCell>
        <mxCell id="q_8bKuRFClCC4gB8SDrk-3" value="header&lt;br&gt;(7)" style="rounded=0;whiteSpace=wrap;html=1;fillColor=#d5e8d4;gradientColor=#97d077;strokeColor=#82b366;" vertex="1" parent="1">
          <mxGeometry x="70" y="380" width="70" height="50" as="geometry" />
        </mxCell>
        <mxCell id="q_8bKuRFClCC4gB8SDrk-25" style="rounded=0;orthogonalLoop=1;jettySize=auto;html=1;exitX=0.25;exitY=1;exitDx=0;exitDy=0;entryX=0.5;entryY=0;entryDx=0;entryDy=0;" edge="1" parent="1" source="q_8bKuRFClCC4gB8SDrk-4" target="q_8bKuRFClCC4gB8SDrk-5">
          <mxGeometry relative="1" as="geometry" />
        </mxCell>
        <mxCell id="q_8bKuRFClCC4gB8SDrk-26" style="rounded=0;orthogonalLoop=1;jettySize=auto;html=1;exitX=0.75;exitY=1;exitDx=0;exitDy=0;entryX=0.5;entryY=0;entryDx=0;entryDy=0;" edge="1" parent="1" source="q_8bKuRFClCC4gB8SDrk-4" target="q_8bKuRFClCC4gB8SDrk-6">
          <mxGeometry relative="1" as="geometry" />
        </mxCell>
        <mxCell id="q_8bKuRFClCC4gB8SDrk-4" value="if a[i] &amp;gt; 0&lt;br&gt;(15)&amp;nbsp;Σ &lt;b&gt;25&lt;/b&gt;" style="rounded=0;whiteSpace=wrap;html=1;fillColor=#d5e8d4;gradientColor=#97d077;strokeColor=#82b366;" vertex="1" parent="1">
          <mxGeometry x="180" y="380" width="70" height="50" as="geometry" />
        </mxCell>
        <mxCell id="q_8bKuRFClCC4gB8SDrk-5" value="s = s + a[i]&lt;br&gt;(8)" style="rounded=0;whiteSpace=wrap;html=1;fillColor=#d5e8d4;gradientColor=#97d077;strokeColor=#82b366;" vertex="1" parent="1">
          <mxGeometry x="130" y="470" width="70" height="50" as="geometry" />
        </mxCell>
        <mxCell id="q_8bKuRFClCC4gB8SDrk-6" value="s = s - a[i]&lt;br&gt;(10)" style="rounded=0;whiteSpace=wrap;html=1;fillColor=#d5e8d4;gradientColor=#97d077;strokeColor=#82b366;" vertex="1" parent="1">
          <mxGeometry x="230" y="470" width="70" height="50" as="geometry" />
        </mxCell>
        <mxCell id="q_8bKuRFClCC4gB8SDrk-31" style="rounded=0;orthogonalLoop=1;jettySize=auto;html=1;exitX=0.5;exitY=1;exitDx=0;exitDy=0;entryX=0.5;entryY=0;entryDx=0;entryDy=0;" edge="1" parent="1" source="q_8bKuRFClCC4gB8SDrk-7" target="q_8bKuRFClCC4gB8SDrk-8">
          <mxGeometry relative="1" as="geometry" />
        </mxCell>
        <mxCell id="q_8bKuRFClCC4gB8SDrk-7" value="if a[i] &amp;gt; 2&lt;br&gt;(15)&amp;nbsp;Σ &lt;b&gt;29&lt;/b&gt;" style="rounded=0;whiteSpace=wrap;html=1;fillColor=#d5e8d4;gradientColor=#97d077;strokeColor=#82b366;" vertex="1" parent="1">
          <mxGeometry x="300" y="380" width="70" height="50" as="geometry" />
        </mxCell>
        <mxCell id="q_8bKuRFClCC4gB8SDrk-8" value="s = s * 2&lt;br&gt;(14)" style="rounded=0;whiteSpace=wrap;html=1;fillColor=#d5e8d4;gradientColor=#97d077;strokeColor=#82b366;" vertex="1" parent="1">
          <mxGeometry x="330" y="470" width="70" height="50" as="geometry" />
        </mxCell>
        <mxCell id="q_8bKuRFClCC4gB8SDrk-9" value="i = i + 2&lt;br&gt;(5)" style="rounded=0;whiteSpace=wrap;html=1;fillColor=#d5e8d4;gradientColor=#97d077;strokeColor=#82b366;" vertex="1" parent="1">
          <mxGeometry x="390" y="380" width="70" height="50" as="geometry" />
        </mxCell>
        <mxCell id="q_8bKuRFClCC4gB8SDrk-33" style="edgeStyle=orthogonalEdgeStyle;rounded=0;orthogonalLoop=1;jettySize=auto;html=1;exitX=0.5;exitY=1;exitDx=0;exitDy=0;entryX=0.5;entryY=0;entryDx=0;entryDy=0;" edge="1" parent="1" source="q_8bKuRFClCC4gB8SDrk-22" target="q_8bKuRFClCC4gB8SDrk-23">
          <mxGeometry relative="1" as="geometry" />
        </mxCell>
        <mxCell id="q_8bKuRFClCC4gB8SDrk-22" value="i = 0&lt;br&gt;(5)&amp;nbsp;Σ &lt;b&gt;3310&lt;/b&gt;" style="rounded=0;whiteSpace=wrap;html=1;fillColor=#d5e8d4;gradientColor=#97d077;strokeColor=#82b366;" vertex="1" parent="1">
          <mxGeometry x="230" y="150" width="70" height="50" as="geometry" />
        </mxCell>
        <mxCell id="q_8bKuRFClCC4gB8SDrk-34" style="edgeStyle=orthogonalEdgeStyle;rounded=0;orthogonalLoop=1;jettySize=auto;html=1;exitX=0.5;exitY=1;exitDx=0;exitDy=0;entryX=0.5;entryY=0;entryDx=0;entryDy=0;" edge="1" parent="1" source="q_8bKuRFClCC4gB8SDrk-23" target="q_8bKuRFClCC4gB8SDrk-2">
          <mxGeometry relative="1" as="geometry" />
        </mxCell>
        <mxCell id="q_8bKuRFClCC4gB8SDrk-23" value="s = 0&lt;br&gt;(5)&amp;nbsp;Σ &lt;b&gt;3305&lt;/b&gt;" style="rounded=0;whiteSpace=wrap;html=1;fillColor=#d5e8d4;gradientColor=#97d077;strokeColor=#82b366;" vertex="1" parent="1">
          <mxGeometry x="230" y="220" width="70" height="50" as="geometry" />
        </mxCell>
      </root>
    </mxGraphModel>
  </diagram>
</mxfile>
